
<svg width="219" height="56" viewBox="0 0 219 56" fill="none" xmlns="http://www.w3.org/2000/svg">

<path d="M109.116 26.2512H104.907V25.1891C104.907 24.6935 104.852 24.371 104.742 24.2372C104.632 24.1035 104.459 24.0327 104.207 24.0327C103.932 24.0327 103.727 24.1271 103.593 24.308C103.452 24.489 103.381 24.7643 103.381 25.1419C103.381 25.6219 103.46 25.9837 103.617 26.2276C103.774 26.4637 104.199 26.7626 104.899 27.1088C106.913 28.1 108.18 28.9182 108.699 29.5476C109.226 30.1849 109.486 31.2076 109.486 32.608C109.486 33.6307 109.337 34.386 109.046 34.8738C108.754 35.3615 108.196 35.7628 107.362 36.0932C106.528 36.4236 105.568 36.5888 104.459 36.5888C103.247 36.5888 102.209 36.4 101.351 36.0224C100.494 35.6448 99.9352 35.1649 99.6677 34.5748C99.4002 33.9848 99.2744 33.1508 99.2744 32.073V31.1289H103.483V32.8755C103.483 33.4183 103.538 33.7645 103.656 33.914C103.774 34.0713 103.987 34.1421 104.286 34.1421C104.585 34.1421 104.813 34.0477 104.962 33.851C105.112 33.6543 105.183 33.3632 105.183 32.9856C105.183 32.136 105.041 31.5852 104.766 31.3256C104.475 31.066 103.767 30.6254 102.642 30.0118C101.517 29.3981 100.777 28.9497 100.407 28.6665C100.045 28.3911 99.7385 28.0056 99.5025 27.51C99.2665 27.0222 99.1406 26.3928 99.1406 25.6297C99.1406 24.5283 99.3137 23.718 99.652 23.2145C99.9903 22.7031 100.541 22.3097 101.304 22.0186C102.067 21.7276 102.98 21.5859 104.058 21.5859C105.238 21.5859 106.237 21.7433 107.063 22.058C107.889 22.3727 108.44 22.766 108.707 23.2459C108.975 23.7258 109.108 24.5283 109.108 25.6769V26.2434L109.116 26.2512ZM115.119 24.489L114.962 26.0388C115.599 24.9217 116.519 24.3316 117.715 24.2687V28.4147C116.921 28.4147 116.331 28.5013 115.953 28.6822C115.575 28.8632 115.347 29.1071 115.261 29.4217C115.174 29.7364 115.135 30.4681 115.135 31.6167V36.2741H110.792V24.4811H115.111L115.119 24.489ZM123.167 21.8849V23.7573H118.691V21.8849H123.167ZM123.167 24.489V36.282H118.691V24.489H123.167ZM139.342 28.163H134.803V25.6612C134.803 24.9295 134.756 24.4811 134.661 24.3001C134.567 24.1192 134.355 24.0327 134.024 24.0327C133.654 24.0327 133.418 24.1428 133.324 24.3631C133.222 24.5834 133.174 25.0554 133.174 25.7871V32.4664C133.174 33.1666 133.23 33.6229 133.324 33.8353C133.426 34.0477 133.646 34.15 133.993 34.15C134.339 34.15 134.551 34.0477 134.653 33.8274C134.756 33.615 134.811 33.1115 134.811 32.3169V30.5074H139.35V31.066C139.35 32.5608 139.224 33.615 138.965 34.2365C138.713 34.858 138.147 35.4087 137.273 35.8808C136.4 36.3528 135.322 36.581 134.048 36.581C132.773 36.581 131.625 36.3843 130.759 35.983C129.902 35.5818 129.327 35.039 129.044 34.3309C128.761 33.6307 128.627 32.5686 128.627 31.1604V26.9593C128.627 25.9208 128.674 25.142 128.753 24.6306C128.84 24.1113 129.091 23.6078 129.524 23.1358C129.949 22.6559 130.539 22.2783 131.302 22.0029C132.057 21.7275 132.931 21.5938 133.914 21.5938C135.251 21.5938 136.353 21.8062 137.226 22.2311C138.091 22.6559 138.666 23.183 138.941 23.8202C139.217 24.4575 139.35 25.4488 139.35 26.7862V28.1551L139.342 28.163ZM145.18 21.8849V25.1262C145.558 24.843 145.959 24.6227 146.391 24.4811C146.824 24.3395 147.288 24.2687 147.792 24.2687C148.555 24.2687 149.2 24.426 149.735 24.7486C150.27 25.0711 150.593 25.4409 150.718 25.8579C150.836 26.2748 150.892 27.038 150.892 28.1472V36.282H146.549V27.982C146.549 27.2976 146.509 26.857 146.423 26.6603C146.336 26.4636 146.155 26.3692 145.864 26.3692C145.597 26.3692 145.416 26.4715 145.321 26.6761C145.227 26.8727 145.18 27.274 145.18 27.8719V36.2899H140.837V21.8928H145.18V21.8849ZM156.273 29.052H152.19V28.2574C152.19 27.3448 152.316 26.6446 152.575 26.1411C152.827 25.6455 153.346 25.2128 154.109 24.8273C154.88 24.4496 155.872 24.2608 157.107 24.2608C158.578 24.2608 159.687 24.4732 160.435 24.9059C161.182 25.3308 161.63 25.8579 161.78 26.4873C161.929 27.1088 162.008 28.399 162.008 30.3501V36.2741H157.775V35.2199C157.508 35.6448 157.162 35.9595 156.745 36.1719C156.328 36.3843 155.824 36.4866 155.242 36.4866C154.479 36.4866 153.787 36.3135 153.149 35.9594C152.512 35.6054 152.198 34.8344 152.198 33.6386V32.6709C152.198 31.7898 152.371 31.184 152.701 30.8693C153.039 30.5468 153.881 30.177 155.219 29.7522C156.65 29.288 157.413 28.9812 157.516 28.816C157.618 28.6586 157.665 28.3282 157.665 27.8326C157.665 27.2189 157.61 26.8177 157.5 26.6289C157.39 26.44 157.201 26.3535 156.941 26.3535C156.643 26.3535 156.462 26.4322 156.391 26.5895C156.32 26.7469 156.281 27.156 156.281 27.809V29.0441L156.273 29.052ZM157.665 30.6648C156.965 31.0896 156.556 31.4358 156.446 31.7269C156.336 32.0101 156.281 32.4192 156.281 32.9541C156.281 33.5678 156.328 33.9612 156.43 34.1342C156.525 34.3152 156.721 34.4017 157.012 34.4017C157.303 34.4017 157.461 34.3309 157.547 34.1893C157.634 34.0477 157.673 33.6858 157.673 33.0879V30.6648H157.665ZM167.987 21.877V23.7494H163.511V21.877H167.987ZM167.987 24.4811V36.2741H163.511V24.4811H167.987ZM174.116 22.9155V24.7722H175.327V26.6446H174.116V32.9541C174.116 33.7251 174.171 34.1578 174.265 34.2523C174.367 34.3388 174.777 34.386 175.5 34.386V36.282H173.738C172.747 36.282 172.039 36.2505 171.606 36.1797C171.181 36.1168 170.811 35.9516 170.481 35.7077C170.158 35.4638 169.954 35.1806 169.875 34.8659C169.797 34.5512 169.757 33.8038 169.757 32.6395V26.6603H168.829V24.7879H169.757V22.9312H174.1L174.116 22.9155ZM180.15 29.052H176.067V28.2574C176.067 27.3448 176.193 26.6446 176.452 26.1411C176.704 25.6455 177.223 25.2128 177.986 24.8273C178.757 24.4496 179.749 24.2608 180.984 24.2608C182.455 24.2608 183.564 24.4732 184.312 24.9059C185.059 25.3308 185.508 25.8579 185.657 26.4873C185.807 27.1088 185.885 28.399 185.885 30.3501V36.2741H181.653V35.2199C181.385 35.6448 181.039 35.9595 180.622 36.1719C180.205 36.3843 179.701 36.4866 179.119 36.4866C178.356 36.4866 177.664 36.3135 177.027 35.9594C176.389 35.6054 176.075 34.8344 176.075 33.6386V32.6709C176.075 31.7898 176.248 31.184 176.578 30.8693C176.916 30.5468 177.758 30.177 179.096 29.7522C180.528 29.288 181.291 28.9812 181.393 28.816C181.495 28.6586 181.542 28.3282 181.542 27.8326C181.542 27.2189 181.487 26.8177 181.377 26.6289C181.267 26.44 181.078 26.3535 180.819 26.3535C180.52 26.3535 180.339 26.4322 180.268 26.5895C180.197 26.7469 180.158 27.156 180.158 27.809V29.0441L180.15 29.052ZM181.542 30.6648C180.842 31.0896 180.433 31.4358 180.323 31.7269C180.213 32.0101 180.158 32.4192 180.158 32.9541C180.158 33.5678 180.205 33.9612 180.307 34.1342C180.402 34.3152 180.598 34.4017 180.889 34.4017C181.181 34.4017 181.338 34.3309 181.424 34.1893C181.511 34.0477 181.55 33.6858 181.55 33.0879V30.6648H181.542ZM191.793 24.4811L191.731 25.5747C192.045 25.1341 192.431 24.8115 192.887 24.5912C193.343 24.371 193.87 24.2608 194.468 24.2608C195.216 24.2608 195.822 24.4103 196.301 24.7014C196.773 24.9925 197.08 25.3544 197.214 25.8028C197.348 26.2434 197.419 26.9829 197.419 28.0135V36.282H193.076V28.1158C193.076 27.3054 193.044 26.8098 192.974 26.6289C192.911 26.4479 192.73 26.3614 192.431 26.3614C192.116 26.3614 191.927 26.4637 191.841 26.6682C191.762 26.8727 191.723 27.4235 191.723 28.3125V36.282H187.38V24.489H191.793V24.4811ZM208.024 24.4811L206.781 33.0171C206.584 34.3703 206.419 35.2907 206.285 35.7864C206.151 36.2741 205.931 36.6832 205.624 37.0058C205.317 37.3284 204.893 37.5644 204.342 37.7138C203.791 37.8633 202.918 37.942 201.714 37.942H199.079V36.046C199.755 36.046 200.188 36.0224 200.377 35.9594C200.573 35.9044 200.668 35.7785 200.668 35.5818C200.668 35.4874 200.573 35.0783 200.392 34.3467L198.009 24.489H201.95L203.374 32.4664L204.074 24.489H208.008L208.024 24.4811ZM212.681 29.052H208.598V28.2574C208.598 27.3448 208.724 26.6446 208.983 26.1411C209.235 25.6455 209.754 25.2128 210.518 24.8273C211.289 24.4496 212.28 24.2608 213.515 24.2608C214.986 24.2608 216.095 24.4732 216.843 24.9059C217.59 25.3308 218.039 25.8579 218.188 26.4873C218.338 27.1088 218.416 28.399 218.416 30.3501V36.2741H214.184V35.2199C213.916 35.6448 213.57 35.9595 213.153 36.1719C212.736 36.3843 212.233 36.4866 211.65 36.4866C210.887 36.4866 210.195 36.3135 209.558 35.9594C208.921 35.6054 208.606 34.8344 208.606 33.6386V32.6709C208.606 31.7898 208.779 31.184 209.109 30.8693C209.448 30.5468 210.289 30.177 211.627 29.7522C213.059 29.288 213.822 28.9812 213.924 28.816C214.026 28.6586 214.074 28.3282 214.074 27.8326C214.074 27.2189 214.019 26.8177 213.908 26.6289C213.798 26.44 213.609 26.3535 213.35 26.3535C213.051 26.3535 212.87 26.4322 212.799 26.5895C212.728 26.7469 212.689 27.156 212.689 27.809V29.0441L212.681 29.052ZM214.074 30.6648C213.373 31.0896 212.964 31.4358 212.854 31.7269C212.744 32.0101 212.689 32.4192 212.689 32.9541C212.689 33.5678 212.736 33.9612 212.838 34.1342C212.933 34.3152 213.13 34.4017 213.421 34.4017C213.712 34.4017 213.869 34.3309 213.956 34.1893C214.042 34.0477 214.081 33.6858 214.081 33.0879V30.6648H214.074Z" fill="#DF2A2B"/>

<path d="M98.5938 47.9891V39.461H104.714V40.4601H99.7188V43.0799H104.416V44.0791H99.7188V46.9821H104.919V47.9812H98.5938V47.9891ZM110.3 47.9891V47.2181C110.111 47.5171 109.868 47.7452 109.576 47.9026C109.278 48.0599 108.963 48.1386 108.617 48.1386C107.893 48.1386 107.263 47.8554 106.736 47.2889C106.209 46.7225 105.942 45.9279 105.942 44.9051C105.942 44.205 106.06 43.607 106.296 43.1193C106.532 42.6315 106.847 42.2696 107.24 42.0336C107.633 41.7976 108.066 41.6796 108.546 41.6796C108.884 41.6796 109.207 41.7504 109.498 41.8998C109.789 42.0493 110.033 42.2539 110.229 42.5214V39.461H111.268V47.9891H110.3ZM107.012 44.913C107.012 45.7155 107.177 46.3055 107.515 46.6989C107.854 47.0844 108.247 47.2811 108.687 47.2811C109.128 47.2811 109.514 47.0922 109.836 46.7225C110.159 46.3527 110.324 45.7863 110.324 45.031C110.324 44.1656 110.167 43.5284 109.836 43.135C109.514 42.7338 109.104 42.5371 108.609 42.5371C108.168 42.5371 107.798 42.7259 107.484 43.1114C107.169 43.4969 107.012 44.0948 107.012 44.913ZM116.917 47.9891V47.0844C116.681 47.4305 116.397 47.698 116.075 47.8711C115.752 48.0442 115.383 48.1307 114.973 48.1307C114.494 48.1307 114.077 48.0206 113.73 47.8082C113.392 47.5957 113.156 47.3204 113.046 46.99C112.928 46.6595 112.873 46.2111 112.873 45.6368V41.8054H113.911V45.2356C113.911 45.8728 113.951 46.2976 114.029 46.5179C114.108 46.7303 114.25 46.9034 114.454 47.0372C114.667 47.1631 114.903 47.2339 115.17 47.2339C115.666 47.2339 116.075 47.0686 116.39 46.7304C116.665 46.4393 116.799 45.9043 116.799 45.1254V41.8133H117.837V47.997H116.917V47.9891ZM123.502 45.7391L124.54 45.8728C124.422 46.6045 124.123 47.1709 123.651 47.5564C123.179 47.9419 122.613 48.1386 121.944 48.1386C121.141 48.1386 120.473 47.8632 119.953 47.3204C119.434 46.7776 119.175 45.9672 119.175 44.9051C119.175 43.8431 119.434 43.0249 119.961 42.4899C120.488 41.9549 121.165 41.6874 121.983 41.6874C122.62 41.6874 123.155 41.8526 123.588 42.1752C124.021 42.4978 124.304 42.9855 124.422 43.6385L123.415 43.7959C123.313 43.3789 123.148 43.0642 122.904 42.8597C122.66 42.6551 122.361 42.545 122.022 42.545C121.511 42.545 121.086 42.7338 120.748 43.1035C120.41 43.4812 120.244 44.0712 120.244 44.8894C120.244 45.7076 120.402 46.3449 120.724 46.7146C121.047 47.0922 121.456 47.2811 121.952 47.2811C122.345 47.2811 122.683 47.1552 122.959 46.9113C123.234 46.6595 123.415 46.2741 123.486 45.7469L123.502 45.7391ZM129.41 47.2339C129.064 47.5328 128.702 47.761 128.324 47.9104C127.947 48.0599 127.553 48.1386 127.152 48.1386C126.515 48.1386 126.003 47.9812 125.618 47.6587C125.232 47.344 125.044 46.9113 125.044 46.3685C125.044 46.0144 125.13 45.6919 125.311 45.4165C125.492 45.1412 125.736 44.9209 126.043 44.7714C126.349 44.6141 126.822 44.5039 127.459 44.4252C128.308 44.323 128.93 44.205 129.323 44.0712V43.8037C129.323 43.3789 129.237 43.0799 129.056 42.9069C128.796 42.6551 128.403 42.5371 127.868 42.5371C127.388 42.5371 127.026 42.6236 126.782 42.7888C126.546 42.9541 126.365 43.2688 126.255 43.7172L125.217 43.5598C125.366 42.899 125.657 42.4269 126.106 42.128C126.554 41.829 127.191 41.6796 128.017 41.6796C128.662 41.6796 129.166 41.7818 129.536 41.9785C129.905 42.1752 130.134 42.4269 130.228 42.718C130.322 43.017 130.37 43.4418 130.37 44.0083V45.4008C130.37 46.3763 130.393 46.99 130.44 47.2496C130.488 47.5013 130.574 47.7531 130.708 47.9891H129.622C129.512 47.7767 129.441 47.5249 129.402 47.226L129.41 47.2339ZM129.331 44.8973C128.954 45.0546 128.379 45.1805 127.632 45.2906C127.191 45.3536 126.884 45.4244 126.711 45.5031C126.538 45.5817 126.405 45.6919 126.302 45.8413C126.208 45.983 126.161 46.156 126.161 46.3449C126.161 46.6359 126.271 46.872 126.491 47.0529C126.711 47.226 127.018 47.3204 127.412 47.3204C127.805 47.3204 128.12 47.2417 128.426 47.0844C128.733 46.927 128.961 46.7146 129.111 46.4471C129.26 46.1796 129.339 45.7941 129.339 45.2906V44.9051L129.331 44.8973ZM134.319 47.0529L134.461 47.9812C134.17 48.0442 133.91 48.0756 133.682 48.0756C133.32 48.0756 133.029 48.0127 132.801 47.8947C132.58 47.7767 132.431 47.6115 132.344 47.4069C132.258 47.2024 132.218 46.7933 132.218 46.1796V42.6158H131.455V41.8054H132.218V40.2792L133.257 39.6498V41.8054H134.311V42.6158H133.257V46.2347C133.257 46.573 133.288 46.7854 133.351 46.8798C133.438 47.0214 133.611 47.0922 133.855 47.0922C133.973 47.0922 134.13 47.0765 134.311 47.045L134.319 47.0529ZM135.287 40.6647V39.461H136.325V40.6647H135.287ZM135.287 47.9891V41.8054H136.325V47.9891H135.287ZM137.529 44.9051C137.529 43.8352 137.804 43.0327 138.339 42.4899C138.882 41.9471 139.567 41.6796 140.4 41.6796C141.234 41.6796 141.903 41.9549 142.454 42.4899C143.005 43.0327 143.28 43.8195 143.28 44.8422C143.28 45.9515 143.012 46.7776 142.47 47.3204C141.927 47.8632 141.242 48.1307 140.408 48.1307C139.574 48.1307 138.898 47.8554 138.355 47.3125C137.812 46.7697 137.537 45.9672 137.537 44.9051H137.529ZM138.599 44.9051C138.599 45.7076 138.772 46.3055 139.126 46.691C139.48 47.0844 139.913 47.2732 140.432 47.2732C140.92 47.2732 141.337 47.0765 141.683 46.6832C142.029 46.2898 142.202 45.6919 142.202 44.8973C142.202 44.1027 142.029 43.5048 141.675 43.1193C141.321 42.7259 140.888 42.5371 140.369 42.5371C139.881 42.5371 139.456 42.7338 139.11 43.1271C138.764 43.5205 138.591 44.1105 138.591 44.9051H138.599ZM144.507 47.997V41.8133H145.443V42.7023C145.672 42.364 145.947 42.1044 146.269 41.9392C146.6 41.774 146.97 41.6874 147.394 41.6874C147.725 41.6874 148.024 41.7425 148.307 41.8448C148.582 41.947 148.811 42.0887 148.984 42.2617C149.157 42.4348 149.283 42.6551 149.369 42.9383C149.456 43.2137 149.495 43.6385 149.495 44.205V48.0048H148.457V44.2522C148.457 43.7959 148.409 43.4654 148.315 43.2609C148.221 43.0563 148.071 42.8911 147.874 42.7731C147.678 42.663 147.45 42.6 147.182 42.6C146.686 42.6 146.293 42.7495 145.994 43.0563C145.695 43.3632 145.553 43.8903 145.553 44.6298V48.0048H144.515L144.507 47.997ZM155.089 47.2339C154.742 47.5328 154.381 47.761 154.003 47.9104C153.625 48.0599 153.232 48.1386 152.831 48.1386C152.193 48.1386 151.682 47.9812 151.297 47.6587C150.911 47.344 150.722 46.9113 150.722 46.3685C150.722 46.0144 150.809 45.6919 150.99 45.4165C151.171 45.1412 151.415 44.9209 151.721 44.7714C152.028 44.6141 152.5 44.5039 153.138 44.4252C153.987 44.323 154.609 44.205 155.002 44.0712V43.8037C155.002 43.3789 154.916 43.0799 154.735 42.9069C154.475 42.6551 154.082 42.5371 153.547 42.5371C153.067 42.5371 152.705 42.6236 152.461 42.7888C152.225 42.9541 152.044 43.2688 151.934 43.7172L150.895 43.5598C151.045 42.899 151.336 42.4269 151.784 42.128C152.233 41.829 152.87 41.6796 153.696 41.6796C154.341 41.6796 154.845 41.7818 155.215 41.9785C155.584 42.1752 155.812 42.4269 155.907 42.718C156.001 43.017 156.048 43.4418 156.048 44.0083V45.4008C156.048 46.3763 156.072 46.99 156.119 47.2496C156.166 47.5013 156.253 47.7531 156.387 47.9891H155.301C155.191 47.7767 155.12 47.5249 155.081 47.226L155.089 47.2339ZM155.01 44.8973C154.632 45.0546 154.058 45.1805 153.311 45.2906C152.87 45.3536 152.563 45.4244 152.39 45.5031C152.217 45.5817 152.083 45.6919 151.981 45.8413C151.887 45.983 151.839 46.156 151.839 46.3449C151.839 46.6359 151.95 46.872 152.17 47.0529C152.39 47.226 152.697 47.3204 153.09 47.3204C153.484 47.3204 153.798 47.2417 154.105 47.0844C154.412 46.927 154.64 46.7146 154.79 46.4471C154.939 46.1796 155.018 45.7941 155.018 45.2906V44.9051L155.01 44.8973ZM157.645 47.997V39.4689H158.684V47.997H157.645ZM163.955 47.997V39.4689H165.08V47.997H163.955ZM166.89 47.997V41.8133H167.826V42.7023C168.054 42.364 168.329 42.1044 168.652 41.9392C168.982 41.774 169.352 41.6874 169.777 41.6874C170.107 41.6874 170.406 41.7425 170.689 41.8448C170.965 41.947 171.193 42.0887 171.366 42.2617C171.539 42.4348 171.665 42.6551 171.752 42.9383C171.838 43.2137 171.877 43.6385 171.877 44.205V48.0048H170.839V44.2522C170.839 43.7959 170.792 43.4654 170.697 43.2609C170.603 43.0563 170.453 42.8911 170.257 42.7731C170.06 42.663 169.832 42.6 169.564 42.6C169.069 42.6 168.675 42.7495 168.376 43.0563C168.078 43.3632 167.936 43.8903 167.936 44.6298V48.0048H166.897L166.89 47.997ZM173.073 46.1482L174.112 45.9908C174.175 46.4235 174.34 46.7461 174.607 46.9585C174.883 47.1709 175.237 47.2732 175.685 47.2732C176.134 47.2732 176.48 47.1788 176.724 46.9978C176.968 46.8169 177.093 46.5809 177.093 46.2976C177.093 46.0538 176.991 45.865 176.787 45.7233C176.645 45.6289 176.291 45.5188 175.732 45.3772C174.922 45.1726 174.379 44.9995 174.112 44.8579C173.836 44.7163 173.624 44.5196 173.474 44.2836C173.325 44.0397 173.246 43.7723 173.246 43.4654C173.246 42.9383 173.451 42.5135 173.86 42.1831C174.269 41.8526 174.835 41.6874 175.559 41.6874C176.016 41.6874 176.417 41.7582 176.763 41.892C177.109 42.0257 177.369 42.2145 177.558 42.4427C177.739 42.6708 177.864 43.0013 177.935 43.4261L176.928 43.5834C176.834 42.8911 176.385 42.545 175.591 42.545C175.134 42.545 174.796 42.6236 174.576 42.7731C174.356 42.9226 174.245 43.1114 174.245 43.3474C174.245 43.5834 174.348 43.7565 174.568 43.8903C174.694 43.9689 175.079 44.0948 175.709 44.26C176.574 44.4803 177.125 44.6534 177.384 44.7871C177.636 44.9209 177.833 45.1018 177.967 45.3378C178.108 45.5739 178.179 45.8492 178.179 46.1639C178.179 46.754 177.951 47.2339 177.495 47.5957C177.038 47.9655 176.425 48.1465 175.638 48.1465C174.167 48.1465 173.317 47.4856 173.081 46.156L173.073 46.1482ZM181.727 47.0529L181.869 47.9812C181.578 48.0442 181.318 48.0756 181.09 48.0756C180.728 48.0756 180.437 48.0127 180.209 47.8947C179.989 47.7767 179.839 47.6115 179.753 47.4069C179.666 47.2024 179.627 46.7933 179.627 46.1796V42.6158H178.864V41.8054H179.627V40.2792L180.665 39.6498V41.8054H181.719V42.6158H180.665V46.2347C180.665 46.573 180.697 46.7854 180.76 46.8798C180.846 47.0214 181.019 47.0922 181.263 47.0922C181.381 47.0922 181.538 47.0765 181.719 47.045L181.727 47.0529ZM182.695 40.6647V39.461H183.733V40.6647H182.695ZM182.695 47.9891V41.8054H183.733V47.9891H182.695ZM187.651 47.045L187.793 47.9734C187.502 48.0363 187.242 48.0678 187.014 48.0678C186.652 48.0678 186.361 48.0049 186.133 47.8868C185.913 47.7688 185.763 47.6036 185.677 47.3991C185.59 47.1945 185.551 46.7854 185.551 46.1718V42.6079H184.788V41.7976H185.551V40.2713L186.589 39.6419V41.7976H187.643V42.6079H186.589V46.2268C186.589 46.5651 186.621 46.7775 186.684 46.872C186.77 47.0136 186.943 47.0844 187.187 47.0844C187.305 47.0844 187.462 47.0686 187.643 47.0372L187.651 47.045ZM192.631 47.9891V47.0844C192.395 47.4305 192.112 47.698 191.789 47.8711C191.467 48.0442 191.097 48.1307 190.688 48.1307C190.208 48.1307 189.791 48.0206 189.445 47.8082C189.107 47.5957 188.871 47.3204 188.761 46.99C188.643 46.6595 188.587 46.2111 188.587 45.6368V41.8054H189.626V45.2356C189.626 45.8728 189.665 46.2976 189.744 46.5179C189.823 46.7303 189.964 46.9034 190.169 47.0372C190.381 47.1631 190.617 47.2339 190.885 47.2339C191.38 47.2339 191.789 47.0686 192.104 46.7304C192.38 46.4393 192.513 45.9043 192.513 45.1254V41.8133H193.552V47.997H192.631V47.9891ZM197.525 47.045L197.666 47.9734C197.375 48.0363 197.116 48.0678 196.887 48.0678C196.526 48.0678 196.234 48.0049 196.006 47.8868C195.786 47.7688 195.637 47.6036 195.55 47.3991C195.463 47.1945 195.424 46.7854 195.424 46.1718V42.6079H194.661V41.7976H195.424V40.2713L196.463 39.6419V41.7976H197.517V42.6079H196.463V46.2268C196.463 46.5651 196.494 46.7775 196.557 46.872C196.644 47.0136 196.817 47.0844 197.061 47.0844C197.179 47.0844 197.336 47.0686 197.517 47.0372L197.525 47.045ZM198.492 40.6568V39.4531H199.531V40.6568H198.492ZM198.492 47.9812V41.7976H199.531V47.9812H198.492ZM200.735 44.8973C200.735 43.8273 201.01 43.0249 201.545 42.482C202.088 41.9392 202.772 41.6717 203.606 41.6717C204.44 41.6717 205.109 41.947 205.659 42.482C206.21 43.0249 206.486 43.8116 206.486 44.8343C206.486 45.9436 206.218 46.7697 205.675 47.3125C205.132 47.8554 204.448 48.1229 203.614 48.1229C202.78 48.1229 202.103 47.8475 201.561 47.3047C201.018 46.7618 200.742 45.9594 200.742 44.8973H200.735ZM201.804 44.8973C201.804 45.6997 201.978 46.2977 202.332 46.6832C202.686 47.0765 203.118 47.2653 203.638 47.2653C204.125 47.2653 204.542 47.0686 204.888 46.6753C205.235 46.2819 205.408 45.684 205.408 44.8894C205.408 44.0948 205.235 43.4969 204.881 43.1114C204.527 42.718 204.094 42.5292 203.575 42.5292C203.087 42.5292 202.662 42.7259 202.316 43.1193C201.97 43.5126 201.797 44.1027 201.797 44.8973H201.804ZM207.713 47.9891V41.8054H208.649V42.6944C208.877 42.3561 209.153 42.0965 209.475 41.9313C209.806 41.7661 210.175 41.6796 210.6 41.6796C210.931 41.6796 211.229 41.7346 211.513 41.8369C211.788 41.9392 212.016 42.0808 212.189 42.2539C212.362 42.427 212.488 42.6472 212.575 42.9305C212.661 43.2058 212.701 43.6306 212.701 44.1971V47.997H211.662V44.2443C211.662 43.788 211.615 43.4576 211.521 43.253C211.426 43.0485 211.277 42.8832 211.08 42.7652C210.883 42.6551 210.655 42.5922 210.388 42.5922C209.892 42.5922 209.499 42.7416 209.2 43.0485C208.901 43.3553 208.759 43.8824 208.759 44.6219V47.997H207.721L207.713 47.9891ZM213.896 46.1403L214.935 45.983C214.998 46.4157 215.163 46.7382 215.431 46.9506C215.706 47.1631 216.06 47.2653 216.508 47.2653C216.957 47.2653 217.303 47.1709 217.547 46.99C217.791 46.809 217.917 46.573 217.917 46.2898C217.917 46.0459 217.814 45.8571 217.61 45.7155C217.468 45.6211 217.114 45.5109 216.556 45.3693C215.745 45.1648 215.202 44.9917 214.935 44.8501C214.66 44.7085 214.447 44.5118 214.298 44.2758C214.148 44.0319 214.07 43.7644 214.07 43.4576C214.07 42.9305 214.274 42.5056 214.683 42.1752C215.092 41.8448 215.659 41.6796 216.383 41.6796C216.839 41.6796 217.24 41.7504 217.586 41.8841C217.932 42.0179 218.192 42.2067 218.381 42.4348C218.562 42.663 218.688 42.9934 218.758 43.4182L217.751 43.5756C217.657 42.8832 217.209 42.5371 216.414 42.5371C215.958 42.5371 215.619 42.6158 215.399 42.7652C215.179 42.9147 215.069 43.1035 215.069 43.3396C215.069 43.5756 215.171 43.7486 215.391 43.8824C215.517 43.9611 215.903 44.0869 216.532 44.2522C217.397 44.4724 217.948 44.6455 218.208 44.7793C218.46 44.913 218.656 45.094 218.79 45.33C218.932 45.566 219.002 45.8414 219.002 46.156C219.002 46.7461 218.774 47.226 218.318 47.5879C217.862 47.9576 217.248 48.1386 216.461 48.1386C214.99 48.1386 214.14 47.4777 213.904 46.1482L213.896 46.1403Z" fill="#5B5C5E"/>

<path d="M0.00786895 26.6276C0.00786895 26.5253 0.0393342 26.4388 0.102272 26.368C0.165211 26.2971 0.259617 26.2578 0.377626 26.2578H2.85582C2.94236 26.2578 3.0289 26.2893 3.12331 26.3601C3.21772 26.4309 3.26492 26.5174 3.26492 26.6276V38.4049C3.26492 38.6488 3.12331 38.7746 2.84795 38.7746H0.369763C0.125877 38.7746 0 38.6488 0 38.4049V26.6276H0.00786895Z" fill="#00364E"/>

<path d="M5.01704 28.2209C5.08785 28.1579 5.16652 28.1186 5.2452 28.1029C5.32387 28.0871 5.40254 28.0793 5.48122 28.0793H6.75571C6.85799 28.0793 6.94453 28.095 7.01533 28.1343C7.08614 28.1737 7.14907 28.2209 7.20415 28.2838C7.25135 28.3468 7.29856 28.4176 7.33002 28.4962C7.36149 28.5749 7.39296 28.6536 7.41657 28.7401L7.58965 29.4797C7.67619 29.3066 7.80993 29.1256 7.99874 28.9447C8.18756 28.7559 8.42357 28.5906 8.69893 28.4412C8.97428 28.2917 9.29684 28.1658 9.66661 28.0635C10.0285 27.9691 10.4376 27.9141 10.886 27.9141C11.5311 27.9141 12.0976 28.0399 12.6011 28.2838C13.1046 28.5277 13.5294 28.866 13.8835 29.2908C14.2375 29.7157 14.505 30.2113 14.6859 30.7856C14.8669 31.3521 14.9613 31.9657 14.9613 32.6108V38.1337C14.9613 38.3461 14.9141 38.5113 14.8197 38.6214C14.7253 38.7316 14.5758 38.7866 14.3791 38.7866H12.428C12.1841 38.7866 12.0189 38.7473 11.9324 38.6686C11.8458 38.5899 11.7986 38.4247 11.7986 38.1966V32.7131C11.7986 32.4692 11.7436 32.2411 11.6334 32.0286C11.5233 31.8162 11.3817 31.6195 11.2007 31.4543C11.0198 31.2891 10.8152 31.1554 10.5871 31.061C10.3589 30.9666 10.1308 30.9194 9.89476 30.9194C9.69021 30.9194 9.48566 30.9666 9.27324 31.0531C9.06083 31.1396 8.87201 31.2655 8.69107 31.4307C8.51799 31.5881 8.3685 31.7769 8.24262 31.9972C8.12462 32.2096 8.05381 32.4456 8.03808 32.6974V38.173C8.03808 38.2674 8.02235 38.3618 7.98301 38.4562C7.94367 38.5506 7.8886 38.6214 7.8178 38.6765C7.74699 38.7237 7.67619 38.7552 7.61325 38.7709C7.55031 38.7866 7.47164 38.7945 7.39296 38.7945H5.48908C5.24519 38.7945 5.07212 38.7316 4.96984 38.6214C4.8597 38.5034 4.8125 38.3461 4.8125 38.1494V28.7244C4.8125 28.6142 4.8361 28.5198 4.8833 28.4333C4.93051 28.3468 4.99344 28.276 5.07998 28.2209L5.03278 28.2445L5.01704 28.2209Z" fill="#00364E"/>

<path d="M17.1591 28.2218C17.1591 27.7025 17.2692 27.2069 17.4974 26.7506C17.7255 26.2864 18.0245 25.8852 18.4021 25.539C18.7797 25.1929 19.2124 24.9175 19.7002 24.7208C20.188 24.5242 20.6993 24.4219 21.2343 24.4219H21.3995C21.5883 24.4219 21.7378 24.4769 21.8401 24.595C21.9424 24.713 21.9974 24.8703 21.9974 25.0749V26.6877C21.9974 26.8922 21.9424 27.0653 21.8322 27.2069C21.7221 27.3406 21.5805 27.4114 21.3995 27.4114H21.2343C21.1163 27.4114 21.0062 27.435 20.896 27.4744C20.7859 27.5137 20.6915 27.5767 20.6128 27.6475C20.5263 27.7183 20.4633 27.8048 20.4082 27.9071C20.361 28.0015 20.3296 28.1116 20.3296 28.2296V29.1973H21.6513C21.8401 29.1973 21.9896 29.2524 22.0918 29.3547C22.1941 29.4569 22.2492 29.6221 22.2492 29.8503V31.3923C22.2492 31.6362 22.1941 31.8092 22.0918 31.9194C21.9896 32.0295 21.8401 32.0846 21.6513 32.0846H20.3296V38.1267C20.3296 38.3391 20.2588 38.5043 20.1172 38.6144C19.9755 38.7246 19.8182 38.7796 19.6451 38.7796H17.8199C17.6154 38.7796 17.458 38.7167 17.3321 38.5908C17.2141 38.465 17.1512 38.3076 17.1512 38.1345V32.0925H16.2858C16.0891 32.0925 15.9318 32.0374 15.8138 31.9273C15.6957 31.8171 15.6328 31.6362 15.6328 31.3923V29.8503C15.6328 29.6221 15.6957 29.4648 15.8138 29.3547C15.9318 29.2524 16.0891 29.1973 16.2858 29.1973H17.1512V28.2296L17.1591 28.2218Z" fill="#00364E"/>

<path d="M22.8281 24.4655C22.8281 24.2295 22.8753 24.0643 22.9776 23.962C23.0799 23.8676 23.2372 23.8125 23.4496 23.8125H25.4086C25.6053 23.8125 25.7626 23.8597 25.8885 23.962C26.0065 24.0643 26.0694 24.2295 26.0694 24.4655V26.1097C26.0694 26.1805 26.0537 26.2514 26.0222 26.33C25.9908 26.4087 25.9514 26.4874 25.8885 26.5582C25.8334 26.629 25.7626 26.6919 25.6839 26.7391C25.6053 26.7863 25.5109 26.8099 25.4086 26.8099H23.4496C23.0327 26.8099 22.8281 26.5739 22.8281 26.1097V24.4655ZM22.8281 28.7295C22.8281 28.5486 22.8753 28.3913 22.9776 28.2654C23.0799 28.1395 23.2372 28.0687 23.4496 28.0687H25.3771C25.4479 28.0687 25.5187 28.0844 25.5974 28.1159C25.6761 28.1474 25.7469 28.1946 25.8177 28.2496C25.8885 28.3047 25.9436 28.3755 25.9908 28.4542C26.038 28.5329 26.0616 28.6194 26.0616 28.7217V38.1152C26.0616 38.3276 26.0065 38.4928 25.8885 38.603C25.7705 38.7131 25.6053 38.7682 25.385 38.7682H23.4575C23.0405 38.7682 22.836 38.5558 22.836 38.1231V28.7295H22.8281Z" fill="#00364E"/>

<path d="M27.2357 28.2209C27.3065 28.1579 27.3852 28.1186 27.4639 28.1029C27.5426 28.0871 27.6212 28.0793 27.6999 28.0793H28.9744C29.0767 28.0793 29.1632 28.095 29.234 28.1343C29.3048 28.1737 29.3678 28.2209 29.4228 28.2838C29.47 28.3468 29.5172 28.4176 29.5487 28.4962C29.5802 28.5749 29.6117 28.6536 29.6353 28.7401L29.8162 29.4797C29.9027 29.3066 30.0365 29.1256 30.2253 28.9447C30.4141 28.7559 30.6501 28.5906 30.9255 28.4412C31.2008 28.2917 31.5234 28.1658 31.8932 28.0635C32.2551 27.9691 32.6642 27.9141 33.1126 27.9141C33.7498 27.9141 34.3242 28.0399 34.8277 28.2838C35.3312 28.5277 35.756 28.866 36.11 29.2908C36.4641 29.7157 36.7315 30.2113 36.9125 30.7856C37.0934 31.3521 37.1878 31.9657 37.1878 32.6108V38.1337C37.1878 38.3461 37.1406 38.5113 37.0462 38.6214C36.9518 38.7316 36.8023 38.7866 36.6057 38.7866H34.6546C34.4107 38.7866 34.2455 38.7473 34.1589 38.6686C34.0724 38.5899 34.0252 38.4247 34.0252 38.1966V32.7131C34.0252 32.4692 33.9701 32.2411 33.86 32.0286C33.7498 31.8162 33.6082 31.6195 33.4273 31.4543C33.2463 31.2891 33.0418 31.1554 32.8136 31.061C32.5855 30.9666 32.3573 30.9194 32.1213 30.9194C31.9168 30.9194 31.7122 30.9666 31.4998 31.0531C31.2874 31.1396 31.0986 31.2655 30.9176 31.4307C30.7367 31.5881 30.5872 31.7769 30.4692 31.9972C30.3512 32.2175 30.2804 32.4456 30.2646 32.6974V38.173C30.2646 38.2674 30.2489 38.3618 30.2096 38.4562C30.1702 38.5506 30.1152 38.6214 30.0444 38.6765C29.9736 38.7237 29.9027 38.7552 29.8398 38.7709C29.7769 38.7866 29.6982 38.7945 29.6195 38.7945H27.7156C27.4718 38.7945 27.2987 38.7316 27.1964 38.6214C27.0863 38.5034 27.0391 38.3461 27.0391 38.1494V28.7244C27.0391 28.6142 27.0627 28.5198 27.1099 28.4333C27.1571 28.3468 27.2279 28.276 27.3065 28.2209L27.2593 28.2445L27.2357 28.2209Z" fill="#00364E"/>

<path d="M38.3516 24.4655C38.3516 24.2295 38.3988 24.0643 38.501 23.962C38.6033 23.8676 38.7607 23.8125 38.9731 23.8125H40.932C41.1287 23.8125 41.2861 23.8597 41.4119 23.962C41.5299 24.0643 41.5929 24.2295 41.5929 24.4655V26.1097C41.5929 26.1805 41.5771 26.2514 41.5457 26.33C41.5142 26.4087 41.467 26.4874 41.4119 26.5582C41.3569 26.629 41.2861 26.6919 41.2074 26.7391C41.1287 26.7863 41.0343 26.8099 40.932 26.8099H38.9731C38.5561 26.8099 38.3516 26.5739 38.3516 26.1097V24.4655ZM38.3516 28.7295C38.3516 28.5486 38.3988 28.3913 38.501 28.2654C38.6033 28.1395 38.7607 28.0687 38.9731 28.0687H40.9084C40.9792 28.0687 41.05 28.0844 41.1287 28.1159C41.2074 28.1474 41.2782 28.1946 41.349 28.2496C41.4198 28.3047 41.4749 28.3755 41.5221 28.4542C41.5693 28.5329 41.5929 28.6194 41.5929 28.7217V38.1152C41.5929 38.3276 41.5299 38.4928 41.4198 38.603C41.3018 38.7131 41.1366 38.7682 40.9163 38.7682H38.9888C38.5718 38.7682 38.3673 38.5558 38.3673 38.1231V28.7295H38.3516Z" fill="#00364E"/>

<path d="M43.6513 26.3998C43.6513 26.2268 43.7064 26.093 43.8244 26.0065C43.9424 25.9199 44.1076 25.8334 44.32 25.7547L46.2318 25.086C46.2318 25.086 46.2868 25.0781 46.3104 25.0781H46.3812C46.5858 25.0781 46.7274 25.1411 46.7982 25.2591C46.869 25.3771 46.9005 25.5423 46.9005 25.739V28.0598H48.0491C48.2301 28.0598 48.3717 28.1149 48.4897 28.2172C48.5998 28.3273 48.6549 28.4847 48.6549 28.6971V30.3256C48.6549 30.5616 48.5998 30.7347 48.4897 30.8448C48.3795 30.955 48.2301 31.0101 48.0491 31.0101H46.8926V38.1221C46.9005 38.3345 46.8376 38.4997 46.7195 38.6098C46.5937 38.72 46.4206 38.775 46.2082 38.775H44.3043C43.8716 38.775 43.6513 38.5626 43.6513 38.1299V31.0179H42.7702C42.3375 31.0179 42.1172 30.7898 42.1172 30.3335V28.7049C42.1172 28.2801 42.3296 28.0677 42.7702 28.0677H43.6356V26.4077L43.6513 26.3998Z" fill="#00364E"/>

<path d="M0.015625 42.9869C0.015625 42.8847 0.0470979 42.7981 0.117903 42.7273C0.188709 42.6565 0.275248 42.6172 0.393257 42.6172H2.88718C2.98159 42.6172 3.06813 42.6486 3.1468 42.7195C3.22547 42.7903 3.26481 42.8768 3.27268 42.9869V52.1602H7.91437C8.01664 52.1602 8.10318 52.1917 8.17399 52.2625C8.24479 52.3333 8.28413 52.4198 8.28413 52.5378V54.7564C8.28413 54.8508 8.25266 54.9373 8.18972 55.016C8.12678 55.0947 8.03238 55.134 7.91437 55.1419H0.385388C0.141502 55.1419 0.015625 55.016 0.015625 54.7721V42.9869Z" fill="#3282C5"/>

<path d="M18.0414 53.8559C17.5457 54.3122 16.9871 54.6662 16.3735 54.9258C15.752 55.1776 15.099 55.3113 14.4067 55.3113C13.6357 55.3113 12.9119 55.1697 12.2196 54.8865C11.5351 54.6033 10.9293 54.2178 10.418 53.7221C9.89873 53.2265 9.48963 52.6365 9.19068 51.9677C8.88385 51.2912 8.73438 50.5595 8.73438 49.7649C8.73438 49.2693 8.79732 48.7894 8.91532 48.3252C9.03333 47.861 9.20641 47.4283 9.42669 47.0192C9.64698 46.618 9.92234 46.2404 10.237 45.9021C10.5517 45.5638 10.9057 45.2727 11.307 45.0288C11.7003 44.7849 12.1252 44.5961 12.5893 44.4624C13.0535 44.3286 13.5334 44.2578 14.0448 44.2578C14.509 44.2578 14.9653 44.3207 15.4058 44.4466C15.8464 44.5725 16.2555 44.7456 16.641 44.9659C17.0265 45.194 17.3805 45.4615 17.7031 45.7762C18.0256 46.0909 18.301 46.437 18.5291 46.8068C18.7573 47.1766 18.9382 47.5778 19.0641 48.0026C19.19 48.4275 19.2529 48.8602 19.2529 49.3165C19.2529 49.6076 19.2529 49.8436 19.2372 50.0324C19.2372 50.2133 19.1821 50.3628 19.1034 50.473C19.0248 50.5831 18.891 50.6618 18.7101 50.7011C18.5291 50.7404 18.2616 50.764 17.9076 50.764H11.8341C11.8892 51.1259 12.0072 51.4249 12.1724 51.6688C12.3455 51.9127 12.5421 52.1015 12.7703 52.2431C12.9984 52.3847 13.2345 52.487 13.4862 52.5499C13.738 52.6129 13.9818 52.6443 14.2021 52.6443C14.4067 52.6443 14.6112 52.6207 14.8236 52.5814C15.0361 52.5421 15.2406 52.487 15.4452 52.4162C15.6418 52.3454 15.8307 52.2667 15.9959 52.1723C16.1611 52.0779 16.2948 51.9835 16.3971 51.8812C16.4836 51.8104 16.5623 51.7553 16.6252 51.716C16.6882 51.6766 16.759 51.6609 16.8298 51.6609C16.9006 51.6609 16.9793 51.6845 17.0501 51.7396C17.1288 51.7868 17.2153 51.8655 17.3097 51.9599L18.2066 52.9748C18.2695 53.0456 18.3088 53.1164 18.3246 53.1714C18.3403 53.2265 18.3482 53.2894 18.3482 53.3524C18.3482 53.4625 18.3167 53.5648 18.2538 53.6435C18.1908 53.7221 18.12 53.8008 18.0335 53.8559H18.0414ZM13.9818 46.8383C13.7616 46.8383 13.5491 46.8855 13.3446 46.972C13.14 47.0586 12.9434 47.1766 12.7703 47.326C12.5893 47.4755 12.432 47.6407 12.2825 47.8217C12.1409 48.0105 12.0229 48.1993 11.9364 48.3881H16.2476C16.1296 48.1678 16.0037 47.9633 15.8621 47.7823C15.7205 47.5935 15.5632 47.4362 15.3901 47.2946C15.217 47.153 15.0125 47.0428 14.7843 46.9642C14.5562 46.8855 14.2887 46.8461 13.9897 46.8461L13.9818 46.8383Z" fill="#3282C5"/>

<path d="M31.1883 54.5089C31.1883 54.6033 31.1726 54.6977 31.1411 54.7843C31.1096 54.8708 31.0546 54.9416 30.9759 54.9888C30.913 55.0518 30.8421 55.0911 30.7556 55.1068C30.6691 55.1226 30.5983 55.1304 30.5353 55.1304H28.8753C28.7573 55.1304 28.6629 55.1147 28.5921 55.0832C28.5213 55.0518 28.4584 55.0124 28.4112 54.9495C28.364 54.8944 28.3246 54.8236 28.2931 54.7449C28.2617 54.6663 28.2302 54.5719 28.1987 54.4775L28.0886 54.0998C27.9391 54.2493 27.766 54.3988 27.5694 54.5483C27.3727 54.6977 27.1603 54.8236 26.9321 54.9416C26.6961 55.0596 26.4522 55.154 26.1847 55.217C25.9172 55.2878 25.6419 55.3193 25.3508 55.3193C24.8394 55.3193 24.3516 55.2563 23.8796 55.1226C23.4076 54.9967 22.9749 54.8079 22.5658 54.5719C22.1567 54.3358 21.7869 54.0448 21.4565 53.7143C21.1261 53.376 20.8428 53.0063 20.599 52.5972C20.3629 52.1881 20.1741 51.7475 20.0482 51.2676C19.9224 50.7956 19.8516 50.2999 19.8516 49.7807C19.8516 49.0018 19.9932 48.2702 20.2843 47.6015C20.5675 46.9327 20.9608 46.3427 21.4565 45.8471C21.9521 45.3514 22.5343 44.9581 23.203 44.6748C23.8717 44.3916 24.5877 44.25 25.3508 44.25C25.697 44.25 26.0274 44.2893 26.3263 44.368C26.6253 44.4467 26.9006 44.5568 27.1524 44.6906C27.4041 44.8243 27.6244 44.9895 27.829 45.1783C28.0335 45.3672 28.2066 45.5717 28.364 45.792L28.6078 45.0289C28.6629 44.8873 28.7101 44.7771 28.7495 44.6906C28.7888 44.604 28.8281 44.5411 28.8675 44.4939C28.9068 44.4546 28.9619 44.4231 29.0248 44.4074C29.0877 44.3916 29.1743 44.3838 29.2844 44.3838H30.5432C30.6061 44.3838 30.6769 44.3916 30.7635 44.4074C30.85 44.4231 30.9208 44.4624 30.9838 44.5254C31.0624 44.5883 31.1175 44.6591 31.149 44.7378C31.1804 44.8165 31.1962 44.903 31.1962 45.0053V54.5011L31.1883 54.5089ZM22.8805 49.7886C22.8805 50.1583 22.9355 50.5045 23.0535 50.827C23.1716 51.1496 23.3368 51.4328 23.5492 51.6688C23.7616 51.9049 24.0212 52.0937 24.3202 52.2274C24.6191 52.369 24.9574 52.432 25.3193 52.432C25.6812 52.432 26.0431 52.3612 26.3657 52.2274C26.6882 52.0937 26.9714 51.9049 27.2075 51.6688C27.4435 51.4328 27.6323 51.1575 27.766 50.827C27.8998 50.5045 27.9706 50.1583 27.9706 49.7886C27.9706 49.4188 27.8998 49.0884 27.766 48.758C27.6323 48.4354 27.4435 48.1443 27.2075 47.9004C26.9714 47.6565 26.6882 47.4599 26.3657 47.3182C26.0431 47.1766 25.6891 47.1058 25.3193 47.1058C24.9496 47.1058 24.6191 47.1766 24.3202 47.3182C24.0212 47.4599 23.7616 47.6565 23.5492 47.9004C23.3368 48.1443 23.1716 48.4354 23.0535 48.758C22.9355 49.0805 22.8805 49.4267 22.8805 49.7886Z" fill="#3282C5"/>

<path d="M32.3672 45.0524C32.3672 44.9501 32.3908 44.8557 32.4301 44.777C32.4695 44.6983 32.5245 44.6354 32.5875 44.5803C32.6504 44.5331 32.7212 44.4938 32.8078 44.4702C32.8864 44.4466 32.973 44.4308 33.0516 44.4308H34.3261C34.4677 44.4308 34.5779 44.4702 34.6644 44.5567C34.751 44.6433 34.8218 44.7455 34.8768 44.8793C34.9319 45.0051 34.987 45.1546 35.0342 45.312C35.0814 45.4693 35.1365 45.6188 35.1915 45.7683C35.3567 45.5795 35.5298 45.3985 35.695 45.2176C35.8603 45.0366 36.0412 44.8793 36.23 44.7377C36.4188 44.5961 36.6312 44.4859 36.8594 44.3994C37.0875 44.3128 37.3472 44.2656 37.6383 44.2656C37.9293 44.2656 38.2126 44.2892 38.4486 44.3364C38.6846 44.3836 38.9128 44.4466 39.1252 44.5331C39.3376 44.6196 39.55 44.7298 39.7624 44.8635C39.9748 44.9973 40.203 45.1546 40.4469 45.3356C40.6908 45.4772 40.8088 45.6424 40.8088 45.8312C40.8088 45.9571 40.7616 46.0987 40.6672 46.2639L39.8962 47.5699C39.7467 47.7902 39.5579 47.9003 39.3297 47.9003C39.2196 47.9003 39.0937 47.8688 38.9521 47.8059C38.7082 47.5699 38.4643 47.3968 38.2126 47.2788C37.9608 47.1608 37.6776 47.1057 37.355 47.1057C37.1348 47.1057 36.9459 47.1372 36.7807 47.2001C36.6155 47.2631 36.466 47.3496 36.3323 47.4597C36.1985 47.5699 36.0727 47.7036 35.9547 47.861C35.8367 48.0183 35.7186 48.1914 35.6006 48.3802V54.4852C35.6006 54.6976 35.5456 54.8628 35.4433 54.973C35.341 55.0831 35.1679 55.1382 34.9241 55.1382H33.028C32.5875 55.1382 32.3672 54.9258 32.3672 54.4931V45.0602V45.0524Z" fill="#3282C5"/>

<path d="M41.4467 44.5803C41.5175 44.5173 41.5962 44.478 41.6828 44.4623C41.7614 44.4465 41.8401 44.4387 41.9109 44.4387H43.1854C43.2877 44.4387 43.3742 44.4544 43.445 44.4937C43.5158 44.5331 43.5788 44.5803 43.6338 44.6432C43.681 44.7061 43.7282 44.7769 43.7597 44.8556C43.7912 44.9343 43.8227 45.013 43.8463 45.0995L44.0193 45.839C44.1059 45.6659 44.2396 45.485 44.4284 45.3041C44.6172 45.1152 44.8533 44.95 45.1286 44.8006C45.404 44.6511 45.7265 44.5252 46.0963 44.4229C46.4582 44.3285 46.8673 44.2734 47.3157 44.2734C47.953 44.2734 48.5273 44.3993 49.0308 44.6432C49.5343 44.8871 49.9591 45.2254 50.3132 45.6502C50.6672 46.075 50.9347 46.5707 51.1156 47.145C51.2966 47.7114 51.391 48.3251 51.391 48.9702V54.493C51.391 54.7054 51.3438 54.8707 51.2494 54.9808C51.155 55.0909 51.0055 55.146 50.8088 55.146H48.8577C48.6138 55.146 48.4486 55.1067 48.3621 55.0201C48.2755 54.9415 48.2283 54.7763 48.2283 54.5481V49.0646C48.2283 48.8207 48.1733 48.5926 48.0631 48.3802C47.953 48.1677 47.8114 47.9711 47.6304 47.8058C47.4495 47.6406 47.2449 47.5069 47.0168 47.4125C46.7886 47.3181 46.5605 47.2709 46.3245 47.2709C46.1199 47.2709 45.9153 47.3181 45.7029 47.4046C45.4905 47.4912 45.2938 47.617 45.1208 47.7822C44.9477 47.9396 44.7982 48.1284 44.6723 48.3487C44.5543 48.5611 44.4835 48.7971 44.4678 49.0489V54.5245C44.4678 54.6189 44.452 54.7133 44.4127 54.8077C44.3734 54.9021 44.3183 54.9729 44.2475 55.028C44.1767 55.0752 44.1059 55.1067 44.0429 55.1224C43.98 55.1381 43.9013 55.146 43.8227 55.146H41.9188C41.6749 55.146 41.5018 55.0831 41.3995 54.9729C41.2894 54.8549 41.2422 54.6976 41.2422 54.5009V45.0759C41.2422 44.9736 41.2658 44.8714 41.313 44.7848C41.3602 44.6983 41.4231 44.6275 41.5097 44.5724L41.4625 44.596L41.4467 44.5803Z" fill="#3282C5"/>

<path d="M63.9236 28.9398L54.1131 42.7233C54.1131 42.7233 53.8063 43.1402 54.3806 43.2346H62.9087C62.9087 43.2346 64.6631 43.0852 65.7645 41.0239L74.3713 28.8533C74.3713 28.8533 74.4657 28.7195 74.4421 28.6094H64.1596C64.1596 28.6094 63.9787 28.8611 63.9236 28.9319V28.9398Z" fill="url(#paint0_linear_5218_125739)"/>

<path d="M57.5408 28.9398L47.7303 42.7233C47.7303 42.7233 47.4235 43.1402 47.9978 43.2346H50.3422C50.3422 43.2346 52.0966 43.0852 53.1981 41.0239L61.8049 28.8533C61.8049 28.8533 61.8993 28.7195 61.8757 28.6094H57.7768C57.7768 28.6094 57.5959 28.8611 57.5408 28.9319V28.9398Z" fill="url(#paint1_linear_5218_125739)"/>

<path d="M63.9236 28.287L54.1131 14.5036C54.1131 14.5036 53.8063 14.0866 54.3806 13.9922H62.9087C62.9087 13.9922 64.6631 14.1417 65.7645 16.2029L74.3713 28.3736C74.3713 28.3736 74.4657 28.5073 74.4421 28.6174H64.1596C64.1596 28.6174 63.9787 28.3657 63.9236 28.2949V28.287Z" fill="url(#paint2_linear_5218_125739)"/>

<path d="M51.971 35.4339L54.0952 32.7197L52.624 28.6209C52.624 28.6209 52.4981 28.1488 52.1362 28.0938H49.8075C49.8075 28.0938 49.1781 28.1331 49.2568 28.8097L51.971 35.4339Z" fill="#00364E"/>

<path d="M60.3413 36.4688L60.3019 38.4906L58.4531 37.4443L60.3413 36.4688Z" fill="#2B78B2"/>

<path d="M59.7477 41.7563L58.1113 42.9522L57.8281 40.8438L59.7477 41.7563Z" fill="#174F85"/>

<path d="M56.4056 39.2893L55.375 38.8723L56.2797 38.1328L56.4056 39.2893Z" fill="#6DC6E1"/>

<path d="M64.3509 43.969L63.3281 43.5442L64.225 42.8047L64.3509 43.969Z" fill="#6DC6E1"/>

<path d="M66.154 38.4282L64.5176 39.6241L64.2344 37.5156L66.154 38.4282Z" fill="#6DC6E1"/>

<path d="M63.0436 35.6797L63.0279 36.7418L62.3906 36.5136L63.0436 35.6797Z" fill="#6DC6E1"/>

<path d="M59.4754 32.7422L59.8923 33.7728L58.9089 34.6067L58.5234 33.6627L59.4754 32.7422Z" fill="#6DC6E1"/>

<path d="M55.1721 41.9531L55.7936 43.5895L55.1406 43.5817L55.1721 41.9531Z" fill="#6DC6E1"/>

<path d="M56.1442 33.2893L54.5078 33.9108L54.5157 33.2578L56.1442 33.2893Z" fill="#6DC6E1"/>

<path d="M60.4922 40.2109L62.223 40.4312L61.9083 40.9977L60.4922 40.2109Z" fill="#6DC6E1"/>

<path d="M57.2978 35.7326L57.1641 34.8672L57.4788 34.9459L57.2978 35.7326Z" fill="#174F85"/>

<path d="M68.1006 32.3594L67.6207 34.043L67.1094 33.6417L68.1006 32.3594Z" fill="#174F85"/>

<path d="M62.2031 30.4453L63.3124 30.7207L63.0685 31.0668L62.2031 30.4453Z" fill="#2B78B2"/>

<path d="M53.6887 37.361L52.0995 38.3444L51.2734 37.2744L51.95 36.0078L53.6887 37.361Z" fill="#6DC6E1"/>

<path d="M53.0695 42.7345L53.0459 43.891L52.0703 43.5213L52.0861 42.7109L53.0695 42.7345Z" fill="#6DC6E1"/>

<path d="M48.5002 38.9453L48.4688 40.566L49.8455 40.1018L49.8612 38.9689L48.5002 38.9453Z" fill="#2B78B2"/>

<path d="M65.8194 31.133L65.7958 32.2895L64.8203 31.9276L64.836 31.1094L65.8194 31.133Z" fill="#2B78B2"/>

<path d="M69.3411 42.2734L70.0963 43.1546L69.1208 43.5243L68.6016 42.9028L69.3411 42.2734Z" fill="#2B78B2"/>

<path d="M66.1751 35.4375L66.6392 35.9882L66.0413 36.2085L65.7188 35.8309L66.1751 35.4375Z" fill="#2B78B2"/>

<path d="M54.1907 46.4297L54.6549 46.9725L54.057 47.2007L53.7266 46.8231L54.1907 46.4297Z" fill="#2B78B2"/>

<path d="M72.8335 27.8438L72.7942 29.8656L70.9375 28.8193L72.8335 27.8438Z" fill="#2B78B2"/>

<path d="M72.24 33.1314L70.6036 34.3272L70.3125 32.2188L72.24 33.1314Z" fill="#174F85"/>

<path d="M68.8899 30.6643L67.8672 30.2473L68.7641 29.5078L68.8899 30.6643Z" fill="#6DC6E1"/>

<path d="M76.8431 35.344L75.8125 34.9192L76.7172 34.1797L76.8431 35.344Z" fill="#6DC6E1"/>

<path d="M78.6462 29.8032L77.0098 30.999L76.7188 28.8906L78.6462 29.8032Z" fill="#6DC6E1"/>

<path d="M75.528 27.0547L75.5122 28.1168L74.875 27.8886L75.528 27.0547Z" fill="#6DC6E1"/>

<path d="M71.9598 24.1172L72.3846 25.1478L71.3933 25.9817L71.0078 25.0377L71.9598 24.1172Z" fill="#6DC6E1"/>

<path d="M67.6564 33.3281L68.2779 34.9645L67.6328 34.9566L67.6564 33.3281Z" fill="#6DC6E1"/>

<path d="M68.6286 24.6643L66.9922 25.2858L67.0079 24.6328L68.6286 24.6643Z" fill="#6DC6E1"/>

<path d="M72.9766 31.5859L74.7152 31.8062L74.3927 32.3727L72.9766 31.5859Z" fill="#6DC6E1"/>

<path d="M69.7822 27.1076L69.6484 26.2422L69.971 26.3209L69.7822 27.1076Z" fill="#174F85"/>

<path d="M80.585 23.7344L80.113 25.418L79.5938 25.0167L80.585 23.7344Z" fill="#174F85"/>

<path d="M74.6875 21.8203L75.7968 22.0957L75.5529 22.4418L74.6875 21.8203Z" fill="#2B78B2"/>

<path d="M66.1731 28.736L64.5839 29.7194L63.7578 28.6494L64.4344 27.3828L66.1731 28.736Z" fill="#6DC6E1"/>

<path d="M65.5538 34.1095L65.5302 35.266L64.5625 34.8963L64.5704 34.0859L65.5538 34.1095Z" fill="#6DC6E1"/>

<path d="M60.9846 30.3203L60.9531 31.941L62.3299 31.4768L62.3535 30.3439L60.9846 30.3203Z" fill="#2B78B2"/>

<path d="M78.296 22.508L78.2724 23.6645L77.3047 23.3026L77.3204 22.4844L78.296 22.508Z" fill="#2B78B2"/>

<path d="M78.6594 26.8125L79.1236 27.3632L78.5257 27.5835L78.2031 27.2059L78.6594 26.8125Z" fill="#2B78B2"/>

<path d="M66.6751 37.8047L67.1392 38.3475L66.5413 38.5757L66.2188 38.1981L66.6751 37.8047Z" fill="#2B78B2"/>

<path d="M51.625 18.9824L52.6005 18.1406L52.8916 19.4545L51.625 18.9824Z" fill="#2B78B2"/>

<path d="M54.375 17.0156L55.6338 17.2831L54.7605 18.3137L54.375 17.0156Z" fill="#174F85"/>

<path d="M54.6285 19.6406L54.8645 20.3015L54.1328 20.1913L54.6285 19.6406Z" fill="#6DC6E1"/>

<path d="M53.4565 13.8984L53.7004 14.5671L52.9688 14.457L53.4565 13.8984Z" fill="#6DC6E1"/>

<path d="M50.0781 15.3984L51.3369 15.6659L50.4636 16.6965L50.0781 15.3984Z" fill="#6DC6E1"/>

<path d="M50.0938 18.0343L50.6051 17.5938L50.7703 17.995L50.0938 18.0343Z" fill="#6DC6E1"/>

<path d="M50.2344 20.9732L50.5412 20.3359L51.3515 20.4461L51.0762 21.0283L50.2344 20.9732Z" fill="#6DC6E1"/>

<path d="M56.4141 19.085L56.9176 18.1016L57.1929 18.4162L56.4141 19.085Z" fill="#6DC6E1"/>

<path d="M51.9062 22.3125L52.8897 22.816L52.5828 23.0914L51.9062 22.3125Z" fill="#6DC6E1"/>

<path d="M53.3247 17.3195L52.6953 16.4069L53.0966 16.3125L53.3247 17.3195Z" fill="#6DC6E1"/>

<path d="M52.5656 20.7266L52.2195 21.1593L52.1172 20.9783L52.5656 20.7266Z" fill="#174F85"/>

<path d="M46.3828 17.0581L47.3819 16.5703L47.4134 16.9873L46.3828 17.0581Z" fill="#174F85"/>

<path d="M47.9868 20.6609L47.6406 20.0237L47.9081 19.9922L47.9868 20.6609Z" fill="#2B78B2"/>

<path d="M54.8672 21.7422L56.0079 22.0726L55.8585 22.9144L54.9695 23.1347L54.8672 21.7422Z" fill="#6DC6E1"/>

<path d="M57.6719 19.7534L58.2305 19.2656L58.4665 19.8871L58.0731 20.2254L57.6719 19.7534Z" fill="#6DC6E1"/>

<path d="M57.8243 23.5156L58.6031 22.8469L57.8007 22.3906L57.2578 22.8627L57.8243 23.5156Z" fill="#2B78B2"/>

<path d="M46.7812 18.6675L47.3398 18.1797L47.5837 18.8012L47.1903 19.1316L46.7812 18.6675Z" fill="#2B78B2"/>

<path d="M50.5391 12.2707L50.6413 11.5391L51.2235 11.838L51.1606 12.3494L50.5391 12.2707Z" fill="#2B78B2"/>

<path d="M48.6562 16.6672L48.7192 16.2109L49.0811 16.3998L49.0417 16.7144L48.6562 16.6672Z" fill="#2B78B2"/>

<path d="M58.9375 17.6516L59.0004 17.1953L59.3623 17.3841L59.323 17.6988L58.9375 17.6516Z" fill="#2B78B2"/>

<path d="M62.1331 13.5078L62.0938 15.5376L63.9898 14.5541L62.1331 13.5078Z" fill="#2B78B2"/>

<path d="M62.5312 18.8106L64.1204 20.0693L64.4902 17.9688L62.5312 18.8106Z" fill="#174F85"/>

<path d="M65.9609 16.469L66.9994 16.0835L66.1261 15.3125L65.9609 16.469Z" fill="#6DC6E1"/>

<path d="M57.8438 20.8439L58.8901 20.4663L58.0168 19.6953L57.8438 20.8439Z" fill="#6DC6E1"/>

<path d="M56.25 15.248L57.8471 16.4989L58.209 14.4062L56.25 15.248Z" fill="#6DC6E1"/>

<path d="M59.4532 12.6172L59.4375 13.6793L60.0826 13.4669L59.4532 12.6172Z" fill="#6DC6E1"/>

<path d="M63.136 9.8125L62.6797 10.8274L63.6316 11.6928L64.0565 10.7644L63.136 9.8125Z" fill="#6DC6E1"/>

<path d="M67.0985 19.1875L66.4141 20.8003L67.067 20.8082L67.0985 19.1875Z" fill="#6DC6E1"/>

<path d="M66.4453 10.4844L68.0581 11.1688L68.0738 10.5159L66.4453 10.4844Z" fill="#6DC6E1"/>

<path d="M61.8402 17.2344L60.1016 17.3917L60.3927 17.9739L61.8402 17.2344Z" fill="#6DC6E1"/>

<path d="M65.212 12.881L65.3772 12.0234L65.0547 12.0864L65.212 12.881Z" fill="#174F85"/>

<path d="M54.5312 9.10938L54.9404 10.8087L55.4753 10.4311L54.5312 9.10938Z" fill="#174F85"/>

<path d="M60.5 7.42188L59.3828 7.65003L59.6188 8.00406L60.5 7.42188Z" fill="#2B78B2"/>

<path d="M68.75 14.6418L70.2999 15.6803L71.1653 14.6497L70.5359 13.3516L68.75 14.6418Z" fill="#6DC6E1"/>

<path d="M69.172 20.0312L69.1484 21.1956L70.1318 20.8652L70.1476 20.047L69.172 20.0312Z" fill="#6DC6E1"/>

<path d="M73.8768 16.4221L73.8454 18.0427L72.4922 17.5235L72.5079 16.3906L73.8768 16.4221Z" fill="#2B78B2"/>

<path d="M56.8674 7.96875L56.8438 9.13311L57.8272 8.79482L57.8429 7.98449L56.8674 7.96875Z" fill="#2B78B2"/>

<path d="M52.9195 18.9688L52.1328 19.8263L53.0926 20.2275L53.6433 19.6296L52.9195 18.9688Z" fill="#2B78B2"/>

<path d="M56.3472 12.2578L55.8594 12.7849L56.4494 13.0367L56.7956 12.6669L56.3472 12.2578Z" fill="#2B78B2"/>

<path d="M67.9175 23.6875L67.4297 24.2146L68.0197 24.4664L68.358 24.0966L67.9175 23.6875Z" fill="#2B78B2"/>

<path d="M62.8281 9.39649L63.8037 8.55469L64.0948 9.8764L62.8281 9.39649Z" fill="#2B78B2"/>

<path d="M65.5781 7.4375L66.8369 7.69712L65.9636 8.72773L65.5781 7.4375Z" fill="#174F85"/>

<path d="M65.8316 10.0547L66.0676 10.7234L65.3359 10.6054L65.8316 10.0547Z" fill="#6DC6E1"/>

<path d="M64.6675 4.32031L64.9035 4.98117L64.1719 4.87103L64.6675 4.32031Z" fill="#6DC6E1"/>

<path d="M61.2812 5.82031L62.54 6.0878L61.6668 7.11054L61.2812 5.82031Z" fill="#6DC6E1"/>

<path d="M61.3047 8.464L61.8161 8.02344L61.9734 8.42466L61.3047 8.464Z" fill="#6DC6E1"/>

<path d="M61.4375 11.3872L61.7522 10.7578L62.5625 10.868L62.2793 11.4501L61.4375 11.3872Z" fill="#6DC6E1"/>

<path d="M67.6172 9.50691L68.1207 8.51562L68.3961 8.83032L67.6172 9.50691Z" fill="#6DC6E1"/>

<path d="M63.1094 12.7344L64.1006 13.2379L63.786 13.5132L63.1094 12.7344Z" fill="#6DC6E1"/>

<path d="M64.5278 7.73352L63.8984 6.82092L64.2997 6.73438L64.5278 7.73352Z" fill="#6DC6E1"/>

<path d="M63.7687 11.1484L63.4226 11.5733L63.3203 11.3923L63.7687 11.1484Z" fill="#174F85"/>

<path d="M57.5859 7.47995L58.5851 6.99219L58.6165 7.40129L57.5859 7.47995Z" fill="#174F85"/>

<path d="M59.1899 11.075L58.8438 10.4377L59.1191 10.4062L59.1899 11.075Z" fill="#2B78B2"/>

<path d="M66.0781 12.1562L67.211 12.4867L67.0615 13.3363L66.1725 13.5566L66.0781 12.1562Z" fill="#6DC6E1"/>

<path d="M68.875 10.1674L69.4336 9.6875L69.6696 10.3011L69.2841 10.6394L68.875 10.1674Z" fill="#6DC6E1"/>

<path d="M69.0274 13.9375L69.8062 13.2609L69.0038 12.8125L68.4609 13.2845L69.0274 13.9375Z" fill="#2B78B2"/>

<path d="M57.9922 9.08147L58.5508 8.60156L58.7868 9.21521L58.3934 9.55351L57.9922 9.08147Z" fill="#2B78B2"/>

<path d="M61.75 2.68479L61.8444 1.95312L62.4344 2.25995L62.3636 2.77132L61.75 2.68479Z" fill="#2B78B2"/>

<path d="M59.8672 7.08125L59.9223 6.63281L60.292 6.82163L60.2448 7.13632L59.8672 7.08125Z" fill="#2B78B2"/>

<path d="M70.1484 8.06563L70.2035 7.61719L70.5654 7.80601L70.5261 8.12069L70.1484 8.06563Z" fill="#2B78B2"/>

<path d="M57.3266 5.90277L56.6658 5.28125L56.4219 6.20959L57.3266 5.90277Z" fill="#2B78B2"/>

<path d="M55.4359 4.44531L54.5469 4.59479L55.1291 5.35006L55.4359 4.44531Z" fill="#174F85"/>

<path d="M55.1966 6.28906L55.0156 6.75324L55.5349 6.6903L55.1966 6.28906Z" fill="#6DC6E1"/>

<path d="M56.1732 2.27344L55.9844 2.7376L56.5036 2.67466L56.1732 2.27344Z" fill="#6DC6E1"/>

<path d="M58.5141 3.42969L57.6172 3.57917L58.2072 4.33443L58.5141 3.42969Z" fill="#6DC6E1"/>

<path d="M58.4252 5.28349L58.079 4.96094L57.9531 5.23628L58.4252 5.28349Z" fill="#6DC6E1"/>

<path d="M58.2554 7.33912L58.0587 6.88281L57.4844 6.94575L57.6653 7.36272L58.2554 7.33912Z" fill="#6DC6E1"/>

<path d="M53.949 5.8565L53.6186 5.14844L53.4141 5.36086L53.949 5.8565Z" fill="#6DC6E1"/>

<path d="M57.044 8.25L56.3359 8.58042L56.5484 8.77711L57.044 8.25Z" fill="#6DC6E1"/>

<path d="M56.1797 4.69242L56.6439 4.06305L56.3606 3.98438L56.1797 4.69242Z" fill="#6DC6E1"/>

<path d="M56.6172 7.11719L56.8532 7.42401L56.924 7.30601L56.6172 7.11719Z" fill="#174F85"/>

<path d="M61.0753 4.69008L60.3908 4.32031L60.3594 4.61141L61.0753 4.69008Z" fill="#174F85"/>

<path d="M59.8438 7.18297L60.1112 6.7424L59.9224 6.71094L59.8438 7.18297Z" fill="#2B78B2"/>

<path d="M54.9666 7.76562L54.1562 7.96231L54.2428 8.56809L54.8643 8.74117L54.9666 7.76562Z" fill="#6DC6E1"/>

<path d="M53.043 6.29152L52.6654 5.9375L52.4766 6.36234L52.744 6.61409L53.043 6.29152Z" fill="#6DC6E1"/>

<path d="M52.8475 8.94304L52.3125 8.4474L52.8947 8.14844L53.2644 8.4946L52.8475 8.94304Z" fill="#2B78B2"/>

<path d="M60.7461 5.80715L60.3685 5.45312L60.1875 5.87796L60.4471 6.12971L60.7461 5.80715Z" fill="#2B78B2"/>

<path d="M58.2689 1.19892L58.2138 0.679688L57.7969 0.884232L57.8283 1.24613L58.2689 1.19892Z" fill="#2B78B2"/>

<path d="M59.4865 4.35381L59.455 4.03125L59.1875 4.15713L59.2111 4.37741L59.4865 4.35381Z" fill="#2B78B2"/>

<path d="M52.2051 4.77567L52.1737 4.45312L51.9141 4.57113L51.9377 4.79927L52.2051 4.77567Z" fill="#2B78B2"/>

<path d="M88.0166 37.5517C87.5808 37.5517 87.193 37.4555 86.8534 37.2633C86.5137 37.071 86.2445 36.7826 86.0459 36.3981C85.8536 36.0072 85.7575 35.5137 85.7575 34.9177C85.7575 34.3153 85.8568 33.8218 86.0555 33.4373C86.2606 33.0527 86.5329 32.7676 86.8726 32.5817C87.2187 32.3894 87.6 32.2933 88.0166 32.2933C88.5229 32.2933 88.9683 32.4023 89.3528 32.6201C89.7437 32.838 90.0513 33.1425 90.2756 33.5334C90.5064 33.9243 90.6217 34.3858 90.6217 34.9177C90.6217 35.4496 90.5064 35.911 90.2756 36.302C90.0513 36.6929 89.7437 37.0005 89.3528 37.2248C88.9683 37.4427 88.5229 37.5517 88.0166 37.5517ZM85.1711 37.4844V30.3515H86.3727V33.543L86.2766 34.9081L86.315 36.2731V37.4844H85.1711ZM87.882 36.5231C88.1704 36.5231 88.4267 36.459 88.651 36.3308C88.8817 36.2026 89.0644 36.0168 89.199 35.7732C89.3336 35.5297 89.4008 35.2445 89.4008 34.9177C89.4008 34.5844 89.3336 34.2992 89.199 34.0621C89.0644 33.8186 88.8817 33.6327 88.651 33.5046C88.4267 33.3764 88.1704 33.3123 87.882 33.3123C87.5936 33.3123 87.334 33.3764 87.1033 33.5046C86.8726 33.6327 86.69 33.8186 86.5554 34.0621C86.4208 34.2992 86.3535 34.5844 86.3535 34.9177C86.3535 35.2445 86.4208 35.5297 86.5554 35.7732C86.69 36.0168 86.8726 36.2026 87.1033 36.3308C87.334 36.459 87.5936 36.5231 87.882 36.5231ZM92.0435 39.4166C91.7935 39.4166 91.5436 39.375 91.2937 39.2916C91.0437 39.2083 90.8354 39.093 90.6688 38.9456L91.1495 38.0612C91.2712 38.1701 91.409 38.2566 91.5628 38.3207C91.7166 38.3848 91.8736 38.4168 92.0339 38.4168C92.2518 38.4168 92.428 38.3624 92.5626 38.2534C92.6972 38.1445 92.8221 37.9618 92.9375 37.7055L93.2355 37.0326L93.3316 36.8884L95.2735 32.351H96.427L94.0238 37.8977C93.8636 38.2823 93.6841 38.5867 93.4854 38.811C93.2932 39.0353 93.0753 39.1923 92.8317 39.282C92.5946 39.3717 92.3319 39.4166 92.0435 39.4166ZM93.1009 37.667L90.7842 32.351H92.0339L93.918 36.7826L93.1009 37.667Z" fill="#211E1F"/>

<path d="M88.4158 18.7344H88.1719V28.6707H88.4158V18.7344Z" fill="#211E1F"/>

<path d="M88.4158 42.2109H88.1719V52.1473H88.4158V42.2109Z" fill="#211E1F"/>

<defs>

<linearGradient id="paint0_linear_5218_125739" x1="54.7504" y1="43.8325" x2="71.0907" y2="29.758" gradientUnits="userSpaceOnUse">

<stop offset="0.22" stop-color="#4DB8E4"/>

<stop offset="0.58" stop-color="#0D7CA7"/>

<stop offset="0.99" stop-color="#0E2025"/>

</linearGradient>

<linearGradient id="paint1_linear_5218_125739" x1="47.0459" y1="42.3063" x2="60.3101" y2="30.883" gradientUnits="userSpaceOnUse">

<stop offset="0.22" stop-color="#4DB8E4"/>

<stop offset="0.58" stop-color="#0D7CA7"/>

<stop offset="0.99" stop-color="#0E2025"/>

</linearGradient>

<linearGradient id="paint2_linear_5218_125739" x1="74.7096" y1="29.0737" x2="54.5144" y2="14.6373" gradientUnits="userSpaceOnUse">

<stop offset="0.22" stop-color="#4DB8E4"/>

<stop offset="0.58" stop-color="#0D7CA7"/>

<stop offset="0.99" stop-color="#0E2025"/>

</linearGradient>

</defs>

</svg>
